<svg width="124" height="40" viewBox="0 0 124 40" fill="none" xmlns="http://www.w3.org/2000/svg">
<path d="M14.2361 34V8.296H19.6721V29.5H30.1121V34H14.2361ZM57.2164 21.112C57.2164 23.776 56.7724 26.104 55.8844 28.096C55.0204 30.064 53.6884 31.6 51.8884 32.704C50.0884 33.808 47.7844 34.36 44.9764 34.36C42.1924 34.36 39.8884 33.808 38.0644 32.704C36.2644 31.6 34.9204 30.052 34.0324 28.06C33.1684 26.068 32.7364 23.74 32.7364 21.076C32.7364 18.412 33.1684 16.096 34.0324 14.128C34.9204 12.16 36.2644 10.636 38.0644 9.556C39.8884 8.452 42.2044 7.9 45.0124 7.9C47.7964 7.9 50.0884 8.452 51.8884 9.556C53.6884 10.636 55.0204 12.172 55.8844 14.164C56.7724 16.132 57.2164 18.448 57.2164 21.112ZM38.4604 21.112C38.4604 23.8 38.9764 25.924 40.0084 27.484C41.0404 29.02 42.6964 29.788 44.9764 29.788C47.3044 29.788 48.9724 29.02 49.9804 27.484C50.9884 25.924 51.4924 23.8 51.4924 21.112C51.4924 18.4 50.9884 16.276 49.9804 14.74C48.9724 13.204 47.3164 12.436 45.0124 12.436C42.7084 12.436 41.0404 13.204 40.0084 14.74C38.9764 16.276 38.4604 18.4 38.4604 21.112ZM72.2968 19.564H82.4848V32.884C81.1408 33.34 79.7368 33.7 78.2728 33.964C76.8328 34.228 75.1888 34.36 73.3408 34.36C69.5008 34.36 66.5488 33.232 64.4848 30.976C62.4208 28.72 61.3888 25.432 61.3888 21.112C61.3888 18.424 61.9048 16.096 62.9368 14.128C63.9928 12.16 65.5168 10.636 67.5088 9.556C69.5008 8.476 71.9368 7.936 74.8168 7.936C76.1848 7.936 77.5288 8.08 78.8488 8.368C80.1688 8.656 81.3688 9.04 82.4488 9.52L80.6488 13.876C79.8568 13.468 78.9568 13.132 77.9488 12.868C76.9408 12.604 75.8848 12.472 74.7808 12.472C73.1968 12.472 71.8168 12.832 70.6408 13.552C69.4888 14.272 68.5888 15.292 67.9408 16.612C67.3168 17.908 67.0048 19.444 67.0048 21.22C67.0048 22.9 67.2328 24.388 67.6888 25.684C68.1448 26.98 68.8648 28 69.8488 28.744C70.8328 29.464 72.1168 29.824 73.7008 29.824C74.4688 29.824 75.1168 29.788 75.6448 29.716C76.1968 29.644 76.7008 29.56 77.1568 29.464V24.1H72.2968V19.564ZM111.92 21.112C111.92 23.776 111.476 26.104 110.588 28.096C109.724 30.064 108.392 31.6 106.592 32.704C104.792 33.808 102.488 34.36 99.6796 34.36C96.8956 34.36 94.5916 33.808 92.7676 32.704C90.9676 31.6 89.6236 30.052 88.7356 28.06C87.8716 26.068 87.4396 23.74 87.4396 21.076C87.4396 18.412 87.8716 16.096 88.7356 14.128C89.6236 12.16 90.9676 10.636 92.7676 9.556C94.5916 8.452 96.9076 7.9 99.7156 7.9C102.5 7.9 104.792 8.452 106.592 9.556C108.392 10.636 109.724 12.172 110.588 14.164C111.476 16.132 111.92 18.448 111.92 21.112ZM93.1636 21.112C93.1636 23.8 93.6796 25.924 94.7116 27.484C95.7436 29.02 97.3996 29.788 99.6796 29.788C102.008 29.788 103.676 29.02 104.684 27.484C105.692 25.924 106.196 23.8 106.196 21.112C106.196 18.4 105.692 16.276 104.684 14.74C103.676 13.204 102.02 12.436 99.7156 12.436C97.4116 12.436 95.7436 13.204 94.7116 14.74C93.6796 16.276 93.1636 18.4 93.1636 21.112Z" fill="black"/>
</svg>
